<?xml version="1.0" encoding="utf-8"?>
<!-- Generator: Adobe Illustrator 23.0.0, SVG Export Plug-In . SVG Version: 6.00 Build 0)  -->
<svg version="1.1" id="Capa_1" xmlns="http://www.w3.org/2000/svg" xmlns:xlink="http://www.w3.org/1999/xlink" x="0px" y="0px"
	 viewBox="0 0 200 50" style="enable-background:new 0 0 200 50;" xml:space="preserve">
<style type="text/css">
	.st0{fill:#1D1D1B;}
</style>
<g>
	<path class="st0" d="M56.4,35.3h-1.6l-3.9,7.7h1.5l0.8-1.7H58l0.8,1.7h1.5l-0.1-0.1L56.4,35.3z M53.8,40l1.8-3.4l1.7,3.4H53.8z
		 M69.8,40c0.5-0.1,1-0.3,1.3-0.7c0.4-0.4,0.5-0.9,0.5-1.6c0-0.7-0.2-1.3-0.7-1.8c-0.4-0.4-1.1-0.7-1.8-0.7h-5.7v7.7h1.3v-2.9h3.5
		l1.9,2.9h1.5l-0.1-0.1L69.8,40z M64.8,38.8v-2.3h4.1c1,0,1.4,0.4,1.4,1.2c0,0.7-0.4,1.1-1.3,1.1H64.8z M78.9,40.1h3.4
		c-0.5,1.2-1.5,1.8-3,1.8c-1,0-1.8-0.3-2.4-0.8c-0.6-0.5-0.9-1.2-0.9-2c0-0.9,0.4-1.5,1.1-2.1c0.6-0.5,1.4-0.7,2.3-0.7
		c1.2,0,2.1,0.4,2.9,1.2l0,0l1.3-0.6l-0.1-0.1c-1-1.2-2.4-1.8-4-1.8c-1.3,0-2.5,0.3-3.3,1c-1,0.8-1.5,1.8-1.5,3c0,1.2,0.5,2.3,1.5,3
		c0.9,0.7,2,1,3.3,1c1.4,0,2.6-0.4,3.4-1.1c0.9-0.8,1.3-1.8,1.3-3v-0.2h-5V40.1z M89,39.6h4.3v-1.3H89v-1.8h6.1v-1.3h-7.5v7.7h7.8
		v-1.3H89V39.6z M106,41.3l-5.5-6.1h-1.6v7.7h1.3v-6.1l5.5,6.1h1.6v-7.7H106V41.3z M110.2,36.5h3.5v6.4h1.3v-6.4h3.5v-1.3h-8.3V36.5
		z M121.9,42.9h1.3v-7.7h-1.3V42.9z M134.6,41.3l-5.5-6.1h-1.6v7.7h1.3v-6.1l5.5,6.1h1.6v-7.7h-1.3V41.3z M148.4,42.8l-3.9-7.6h-1.6
		l-3.9,7.7h1.5l0.8-1.7h4.8l0.8,1.7L148.4,42.8L148.4,42.8z M141.9,40l1.8-3.4l1.7,3.4H141.9z"/>
	<g>
		<g>
			<path class="st0" d="M17.8,10.4h-5.4c-0.6,0-1,0.1-1.3,0.2c-0.3,0.1-0.6,0.4-0.8,0.8H9.9V7h0.4c0.1,0.2,0.3,0.3,0.5,0.4
				c0.2,0.1,0.4,0.1,0.7,0.1h16.4c0.3,0,0.6,0,0.7-0.1C28.7,7.2,28.8,7.1,29,7h0.4v4.4H29c-0.2-0.4-0.5-0.6-0.8-0.7
				c-0.3-0.1-0.8-0.2-1.4-0.2h-5.4v12.8c0,0.7,0.1,1.3,0.4,1.6c0.2,0.3,0.7,0.6,1.3,0.7v0.3h-7v-0.3c0.7-0.2,1.1-0.4,1.3-0.7
				c0.2-0.3,0.3-0.8,0.3-1.6V10.4z"/>
			<path class="st0" d="M34.8,7.4h10.9c1,0,1.9,0.1,2.6,0.2c0.7,0.1,1.3,0.4,1.9,0.7c0.8,0.5,1.5,1.2,2,2c0.5,0.8,0.7,1.7,0.7,2.6
				c0,0.9-0.2,1.7-0.6,2.4c-0.4,0.7-0.9,1.4-1.6,1.9c-0.7,0.5-1.5,0.9-2.5,1.1l4,5.1c0,0,0.1,0.1,0.1,0.1c0,0,0.1,0.1,0.2,0.2
				l0.6,0.7c0.5,0.6,1.2,1,1.9,1.1v0.3h-5.5l-5.3-7.2h-3.9v4.6c0,0.7,0.1,1.3,0.4,1.6c0.2,0.3,0.7,0.6,1.3,0.7v0.3h-7v-0.3
				c0.4-0.1,0.8-0.2,1-0.4c0.2-0.2,0.4-0.4,0.5-0.7c0.1-0.3,0.1-0.7,0.1-1.2V10c0-0.7-0.1-1.2-0.4-1.6c-0.3-0.3-0.7-0.6-1.3-0.7V7.4
				z M40.1,10.4v5.3h5.1c1.2,0,2.1-0.2,2.7-0.7c0.6-0.5,1-1.1,1-2c0-1-0.5-1.8-1.5-2.3c-0.5-0.2-1.2-0.3-2.1-0.3H40.1z"/>
			<path class="st0" d="M84.8,7.4H95c1.5,0,2.8,0.2,3.8,0.6c1,0.4,1.8,1.1,2.4,2c0.6,0.9,0.9,1.9,0.9,3c0,0.7-0.1,1.4-0.4,2.1
				c-0.3,0.7-0.7,1.2-1.2,1.7c-0.5,0.5-1.1,0.9-1.8,1.2c-0.9,0.4-2.2,0.5-3.8,0.5h-4.8v4.6c0,0.7,0.1,1.3,0.4,1.6
				c0.2,0.3,0.7,0.6,1.3,0.7v0.3h-7v-0.3c0.4-0.1,0.8-0.2,1-0.4c0.2-0.2,0.4-0.4,0.5-0.7c0.1-0.3,0.1-0.7,0.1-1.2V10
				c0-0.7-0.1-1.2-0.4-1.5c-0.2-0.3-0.7-0.6-1.3-0.7V7.4z M90.2,10.4v5.2h4.7c1.1,0,2-0.2,2.6-0.7c0.6-0.5,0.9-1.1,0.9-2
				c0-0.3-0.1-0.7-0.2-1c-0.1-0.3-0.3-0.6-0.6-0.8c-0.2-0.2-0.5-0.4-0.9-0.5c-0.4-0.2-1.1-0.2-1.8-0.2H90.2z"/>
			<path class="st0" d="M107.2,25.8v-0.3c0.4-0.1,0.8-0.2,1-0.4c0.2-0.2,0.4-0.4,0.5-0.7c0.1-0.3,0.2-0.7,0.2-1.2V10
				c0-0.7-0.1-1.2-0.4-1.5c-0.2-0.3-0.7-0.6-1.3-0.7V7.4h7v0.3c-0.6,0.1-1,0.3-1.3,0.7c-0.3,0.3-0.4,0.9-0.4,1.6v13.1
				c0,0.7,0.1,1.3,0.4,1.6c0.2,0.3,0.7,0.6,1.3,0.7v0.3H107.2z"/>
			<path class="st0" d="M138,7.4v4.9h-0.4c-0.5-0.5-1-0.9-1.7-1.3c-0.7-0.4-1.4-0.6-2.2-0.8c-0.8-0.2-1.7-0.3-2.6-0.3
				c-1.5,0-2.8,0.3-3.9,0.9c-1.2,0.6-2.1,1.4-2.7,2.4c-0.7,1-1,2.2-1,3.5c0,0.9,0.2,1.8,0.6,2.6c0.4,0.8,0.9,1.5,1.6,2.1
				c0.7,0.6,1.5,1,2.5,1.4c1,0.3,2,0.5,3.2,0.5c1.1,0,2-0.1,2.9-0.3c0.9-0.2,1.7-0.5,2.3-0.9c0.6-0.4,1.1-0.8,1.4-1.3h0.4v5.1H138
				c-0.3-0.3-0.6-0.5-1-0.5c-0.2,0-0.6,0.1-1,0.2c-1.1,0.3-2,0.5-2.7,0.6c-0.6,0.1-1.4,0.2-2.2,0.2c-1.9,0-3.6-0.3-5.2-0.9
				c-1.5-0.6-2.8-1.4-3.9-2.5c-0.8-0.9-1.5-1.9-1.9-3c-0.4-1.1-0.7-2.2-0.7-3.3c0-1.8,0.5-3.4,1.5-4.9c1-1.5,2.3-2.7,4-3.5
				c1.7-0.9,3.6-1.3,5.6-1.3c1.2,0,2.5,0.2,3.7,0.5l0.7,0.2c0.5,0.1,0.9,0.2,1.3,0.2c0.5,0,0.9-0.1,1.1-0.4H138z"/>
			<path class="st0" d="M150.1,14.6h10.4V10c0-0.7-0.1-1.2-0.4-1.5c-0.2-0.3-0.7-0.6-1.3-0.7V7.4h7v0.3c-0.6,0.1-1,0.3-1.3,0.7
				c-0.2,0.3-0.4,0.9-0.4,1.6v13.1c0,0.7,0.1,1.2,0.4,1.6c0.2,0.3,0.7,0.6,1.3,0.7v0.3h-7v-0.3c0.4-0.1,0.8-0.2,1-0.4
				c0.2-0.2,0.4-0.4,0.5-0.7c0.1-0.3,0.1-0.7,0.1-1.2v-5.6h-10.4v5.6c0,0.7,0.1,1.3,0.4,1.6c0.2,0.3,0.7,0.6,1.3,0.7v0.3h-7v-0.3
				c0.4-0.1,0.8-0.2,1-0.4c0.2-0.2,0.4-0.4,0.5-0.7c0.1-0.3,0.1-0.7,0.1-1.2V10c0-0.7-0.1-1.2-0.4-1.5c-0.2-0.3-0.7-0.6-1.3-0.7V7.4
				h7v0.3c-0.6,0.1-1,0.3-1.3,0.7c-0.2,0.3-0.4,0.9-0.4,1.6V14.6z"/>
			<path class="st0" d="M189.8,21.8c-0.2,0.4-0.5,0.6-0.8,0.7c-0.3,0.1-0.7,0.2-1.2,0.2h-10.2v-5.3h8.6v-3h-8.6v-4.2h9.3
				c0.6,0,1.1,0.1,1.4,0.2c0.3,0.1,0.6,0.4,0.8,0.7h0.4v-0.4h0V7h-0.4c0,0,0,0,0,0c-0.2,0.1-0.3,0.3-0.5,0.3c-0.2,0.1-0.5,0.1-1,0.1
				h-15.3v0.3c0.6,0.2,1,0.4,1.3,0.7c0.2,0.3,0.4,0.8,0.4,1.5v13.1c0,0.7-0.1,1.3-0.4,1.6c-0.2,0.3-0.7,0.6-1.3,0.7v0.3h16
				c0.4,0,0.7,0,0.9,0.1c0.2,0.1,0.4,0.2,0.6,0.3h0.4v-4.4H189.8z"/>
		</g>
		<path class="st0" d="M65.6,7.4h7v0.3C72.2,7.8,72,8,72,8.2c0,0.1,0.1,0.3,0.2,0.6l7.1,15c0.2,0.4,0.3,0.7,0.5,0.9
			c0.2,0.2,0.3,0.4,0.5,0.5c0.2,0.1,0.4,0.2,0.7,0.2v0.4h-7v-0.4c0.9,0,1.4-0.4,1.4-1c0-0.3-0.1-0.5-0.2-0.9L73.9,21h-9.4l-1.2,2.6
			c-0.1,0.3-0.2,0.5-0.2,0.7c0,0.3,0.1,0.6,0.4,0.8c0.3,0.2,0.6,0.3,1,0.3v0.4h-7v-0.4c0.4-0.1,0.8-0.2,1-0.4
			c0.2-0.2,0.5-0.6,0.7-1.1l7.1-14.5c0.1-0.3,0.2-0.5,0.2-0.7c0-0.5-0.3-0.8-0.8-0.9V7.4z M72.5,18.1l-3.3-6.8L66,18.1H72.5z"/>
	</g>
</g>
</svg>
