<?xml version="1.0" encoding="utf-8"?>
<!-- Generator: Adobe Illustrator 23.0.0, SVG Export Plug-In . SVG Version: 6.00 Build 0)  -->
<svg version="1.1" id="Capa_1" xmlns="http://www.w3.org/2000/svg" xmlns:xlink="http://www.w3.org/1999/xlink" x="0px" y="0px"
	 viewBox="0 0 147.6 74.1" style="enable-background:new 0 0 147.6 74.1;" xml:space="preserve">
<style type="text/css">
	.st0{fill:#EF5316;}
</style>
<g>
	<rect x="138.2" y="64" class="st0" width="9.4" height="9.4"/>
	<polygon class="st0" points="119.1,22.1 124.7,64.2 130.3,22.1 139.1,22.1 130.9,73.5 118.5,73.5 110.4,22.1 	"/>
	<path class="st0" d="M4.9,22.1H0.1v6.8h4.8v44.5h8.5V28.9h6v-6.8h-6V11.6c0-1.5,0.3-2.7,1.1-3.5C15.3,7.4,16.4,7,17.9,7h1.5V0h-3.1
		c-3.8,0-7.4,0.8-9.2,2.5c-1.7,1.6-2.3,4.2-2.3,7.8v11.8H4.9z"/>
	<rect x="22.1" y="22.1" class="st0" width="8.5" height="51.4"/>
	<path class="st0" d="M70.1,33.1c0-2.9,0.8-5.9,4.7-5.9s4.8,3,4.8,5.9v10.6h-9.5V33.1z M70.1,50.7h17.8V34.8
		c0-9.5-4.6-13.4-13.2-13.4c-9,0-13.2,3.9-13.2,13.4v26c0,8.7,5.3,13.2,13.2,13.2s13.2-3.7,13.2-13.2v-4.1h-8.2c0,0,0,3.7,0,4.9
		c0,3.5-1.3,5.9-4.8,5.9s-4.8-2.4-4.8-5.9V50.7z"/>
	<path class="st0" d="M49.9,44.2c-6.4-5.7-7-6.4-7-10.6c0-3.6,0.3-5.7,3.5-5.7S50,30,50,33.7v4.7h8.2v-7.7c0-6.1-4.7-9.2-12-9.2
		c-7.2,0-11.9,2.4-12,12.1c0,1.6,0,1.6,0,1c0,3.1,0,7.9,7.6,14.4l2.2,1.9c5.6,4.7,6.2,5.3,6.1,10.8c0,3.4-0.2,6-3.8,6
		s-3.8-2.6-3.8-4.2v-6.6h-8.6v6.8c0,8.3,5.4,10.4,12.5,10.4c7,0,12.5-2.1,12.5-12.8v-0.9C58.7,52.9,57.4,50.9,49.9,44.2z"/>
	<path class="st0" d="M99.3,27.4v-5.3h-7.8v51.4h8.4V37.7c0-2.8,0.9-4.6,2.5-5.7c1.5-1,3.3-1.4,5.6-1.4v-9.1c-4.5,0.1-6.4,1-8.6,5.7
		L99.3,27.4z"/>
</g>
</svg>
