<?xml version="1.0" encoding="utf-8"?>
<!-- Generator: Adobe Illustrator 23.0.0, SVG Export Plug-In . SVG Version: 6.00 Build 0)  -->
<svg version="1.1" id="Capa_1" xmlns="http://www.w3.org/2000/svg" xmlns:xlink="http://www.w3.org/1999/xlink" x="0px" y="0px"
	 viewBox="0 0 120 93.8" style="enable-background:new 0 0 120 93.8;" xml:space="preserve">
<style type="text/css">
	.st0{fill:#00478B;}
	.st1{fill:#00B5B5;}
	.st2{fill:#F5B027;}
	.st3{fill:#FDD424;}
	.st4{fill:#EA285D;}
</style>
<g>
	<path class="st0" d="M43.6,76.9V61.2c0-0.3,0.1-0.6,0.4-0.8c0.2-0.2,0.5-0.4,0.8-0.4h2.3c0.3,0,0.6,0.1,0.9,0.4
		c0.2,0.2,0.3,0.5,0.3,0.8v15.7c0,0.3-0.1,0.6-0.4,0.8c-0.2,0.2-0.5,0.3-0.9,0.3h-2.3c-0.3,0-0.6-0.1-0.8-0.3
		C43.7,77.5,43.6,77.2,43.6,76.9"/>
	<path class="st0" d="M52,73.4c0-0.5,0.1-0.9,0.4-1.1c0.3-0.2,0.6-0.3,0.9-0.3h1.5c0.8,0,1.3,0.4,1.7,1.2c0.4,0.8,1.3,1.2,2.7,1.2
		l4.4,0.1c1.5,0,2.2-0.5,2.2-1.4c0-0.7-0.9-1.3-2.7-1.7c-0.8-0.2-1.7-0.4-2.7-0.6c-1-0.2-1.9-0.4-2.9-0.7c-1-0.3-1.8-0.6-2.7-1
		c-0.8-0.4-1.5-0.9-2-1.6c-0.5-0.7-0.7-1.5-0.7-2.4c0-1.7,0.6-3,1.8-3.9c1.2-0.9,3.3-1.4,6.2-1.4l3.2,0.1c1.7,0,3.3,0.4,4.7,1.3
		c1.4,0.9,2.1,2,2.1,3.3c0,0.5-0.1,0.9-0.4,1.1C69.3,65.9,69,66,68.8,66h-1.5c-0.8,0-1.3-0.4-1.7-1.2c-0.4-0.8-1.3-1.2-2.7-1.2
		l-3.8-0.1c-1.5,0-2.2,0.5-2.2,1.4c0,0.5,0.5,1,1.4,1.3c0.9,0.3,2.1,0.6,3.4,0.9c1.3,0.3,2.7,0.6,4,0.9c1.3,0.4,2.5,1,3.4,1.8
		c0.9,0.8,1.4,1.9,1.4,3.1c0,1.7-0.6,3-1.8,3.9c-1.2,0.9-3.3,1.4-6.2,1.4l-3.8-0.1c-1.7,0-3.3-0.4-4.7-1.3
		C52.7,75.8,52,74.7,52,73.4"/>
	<path class="st0" d="M74.1,76.8V61.2c0-0.3,0.1-0.6,0.3-0.9c0.2-0.2,0.5-0.4,0.8-0.4h5.1c0.3,0,0.6,0.1,0.9,0.4
		c0.3,0.2,0.5,0.5,0.6,0.8l3.7,10.8l3.7-10.8c0.1-0.3,0.3-0.6,0.6-0.8c0.3-0.2,0.6-0.4,0.9-0.4H96c0.3,0,0.6,0.1,0.8,0.4
		c0.2,0.2,0.3,0.5,0.3,0.9v15.6c0,0.3-0.1,0.6-0.3,0.9C96.6,77.9,96.3,78,96,78h-2.3c-0.3,0-0.6-0.1-0.8-0.3
		c-0.2-0.2-0.3-0.5-0.3-0.9V64.5l-4.4,12.4c-0.1,0.3-0.3,0.6-0.6,0.8c-0.3,0.2-0.6,0.3-0.9,0.3h-1.8c-0.3,0-0.6-0.1-0.9-0.3
		c-0.3-0.2-0.5-0.5-0.6-0.8l-4.4-12.4v12.3c0,0.3-0.1,0.6-0.3,0.9c-0.2,0.2-0.5,0.3-0.8,0.3h-2.3c-0.3,0-0.6-0.1-0.8-0.3
		C74.2,77.5,74.1,77.2,74.1,76.8"/>
	<path class="st0" d="M10.8,60.1H1.2c-0.3,0-0.6,0.1-0.8,0.4C0.1,60.7,0,61,0,61.3V77c0,0.3,0.1,0.6,0.4,0.8
		c0.2,0.2,0.5,0.3,0.8,0.3h2.4c0.3,0,0.6-0.1,0.8-0.3c0.2-0.2,0.3-0.5,0.3-0.8V63.7h4.6c1.4,0,2.5,0.2,3.2,0.7
		c0.7,0.5,1.1,1,1.1,2.4c0,1.4-0.4,2.3-1.1,2.7c-0.7,0.5-1.8,0.7-3.2,0.7c0,0-2.1-0.2-2.1,1.7v1.9h3.5c5.1,0,7.6-2.3,7.6-7
		C18.4,62.1,15.9,60.1,10.8,60.1"/>
	<path class="st0" d="M110.6,70.1c0,0-2.1-0.2-2.1,1.7v1.9h6.4v3.2c0,0.3,0.1,0.6,0.3,0.8c0.2,0.2,0.5,0.3,0.9,0.3h2.4
		c0.3,0,0.6-0.1,0.8-0.3c0.2-0.2,0.4-0.5,0.4-0.8V61.1c0-0.3-0.1-0.6-0.3-0.8c-0.2-0.2-0.5-0.4-0.8-0.4h-6.8c-4.7,0-7.5,1.6-8.4,4.9
		l-3.2,12c0,0.1,0,0.2,0,0.4c0,0.1,0.1,0.3,0.2,0.5c0.1,0.2,0.4,0.3,0.7,0.3h2.5c0.3,0,0.6-0.1,0.9-0.3c0.3-0.2,0.5-0.5,0.6-0.8
		l0.8-3.2l0.9-3.6l1.1-4c0.2-0.8,0.6-1.4,1.2-1.8c0.6-0.5,1.3-0.7,2.1-0.7h3.6v6.6H110.6z"/>
	<path class="st0" d="M40.3,76.8L38,73.2c-0.6-0.9-1-1.5-1.5-2c-0.4-0.4-0.9-0.8-1.4-0.9c3.2-0.6,4.8-2.2,4.8-4.6
		c0-1.8-0.6-3.1-1.8-4.2c-1.2-1-2.8-1.5-4.7-1.5H22.9c-0.3,0-0.6,0.1-0.8,0.4c-0.2,0.2-0.3,0.5-0.3,0.8v15.7c0,0.3,0.1,0.6,0.4,0.8
		c0.2,0.2,0.5,0.3,0.8,0.3h2.4c0.3,0,0.6-0.1,0.8-0.3c0.2-0.2,0.3-0.5,0.3-0.8V63.5h5.4c0.9,0,1.6,0.2,2.3,0.5c0.7,0.3,1,0.9,1,1.7
		c0,0.8-0.3,1.3-1,1.6c-0.7,0.3-1.4,0.5-2.3,0.5h-2.2v0c-0.6,0.1-1.6,0.4-1.6,1.7v1.9h1.6v0c1.2,0,2.2,0.7,3.1,2.1l2.1,3.3
		c0.2,0.3,0.5,0.6,0.9,0.8c0.4,0.2,0.7,0.3,1.1,0.3h3c0.4,0,0.6-0.2,0.6-0.5C40.5,77.3,40.4,77.1,40.3,76.8"/>
	<path class="st0" d="M45.2,91.9h-0.9v-3.8c0-0.3,0-0.6,0-0.9c0.5-0.2,1.3-0.4,2.1-0.4c0.6,0,1,0.1,1.3,0.4c0.5-0.2,1.1-0.4,1.7-0.4
		c1.5,0,1.8,0.8,1.8,1.9v3.3h-0.9v-3.1c0-0.9-0.2-1.3-1.1-1.3c-0.3,0-0.8,0.1-1.1,0.3c0.1,0.3,0.1,0.6,0.1,0.9v3.3h-0.9v-3.1
		c0-0.9-0.2-1.3-1.1-1.3c-0.3,0-0.7,0.1-1,0.2c0,0.2,0,0.5,0,0.7V91.9z"/>
	<path class="st0" d="M53.1,89.4c0-1.8,0.6-2.6,2.2-2.6c1.8,0,2.2,0.9,2.2,2.4c0,0.1,0,0.3,0,0.4c-0.6,0.1-1.8,0.2-2.5,0.2l-1.1,0
		c0.1,1,0.5,1.4,1.5,1.4c0.7,0,1.3-0.1,1.8-0.1l0.1,0.7c-0.6,0.1-1.2,0.2-2.1,0.2C53.5,92,53.1,90.9,53.1,89.4 M55.1,89.2
		c0.4,0,1.1-0.1,1.5-0.1c0-0.1,0-0.2,0-0.3c0-0.8-0.3-1.3-1.3-1.3c-1.2,0-1.4,0.7-1.4,1.8L55.1,89.2z"/>
	<path class="st0" d="M62.5,84.9h0.9v5.7c0,0.3,0,0.6,0,0.9C62.7,91.8,62,92,61.4,92c-1.6,0-2.3-0.6-2.3-2.6c0-1.9,0.6-2.6,2.2-2.6
		c0.4,0,0.9,0.1,1.3,0.2V84.9z M61.5,87.5c-1.4,0-1.5,0.7-1.5,1.9c0,1.2,0.2,1.9,1.4,1.9c0.4,0,0.8-0.1,1.1-0.2c0-0.2,0-0.5,0-0.7
		v-2.7C62.2,87.6,61.8,87.5,61.5,87.5"/>
	<path class="st0" d="M65.2,85.4c0-0.4,0.1-0.6,0.5-0.6c0.4,0,0.5,0.1,0.5,0.6c0,0.4-0.1,0.6-0.5,0.6C65.4,86,65.2,85.8,65.2,85.4
		 M65.3,86.9h0.9v5h-0.9V86.9z"/>
	<path class="st0" d="M68,89.4c0-1.9,0.6-2.6,2.2-2.6c1.6,0,2.2,0.7,2.2,2.6c0,1.9-0.6,2.6-2.2,2.6C68.6,92,68,91.3,68,89.4
		 M71.6,89.4c0-1.4-0.3-1.9-1.4-1.9c-1,0-1.4,0.4-1.4,1.9c0,1.5,0.3,1.9,1.4,1.9C71.3,91.3,71.6,90.8,71.6,89.4"/>
	<path class="st0" d="M75,88.1c0,0.6,0.6,0.7,1.1,0.9c0.9,0.3,1.6,0.5,1.6,1.5c0,1.1-0.8,1.4-1.9,1.4c-0.5,0-1.1-0.1-1.7-0.2
		l0.1-0.7c0.4,0.1,0.9,0.1,1.3,0.1c0.5,0,1.3,0,1.3-0.7c0-0.6-0.5-0.7-1.1-0.9c-0.8-0.2-1.6-0.4-1.6-1.5c0-1.1,0.8-1.4,1.8-1.4
		c0.7,0,1.1,0.1,1.7,0.2l-0.1,0.7c-0.4-0.1-0.8-0.1-1.3-0.1C75.7,87.5,75,87.5,75,88.1"/>
	<path class="st0" d="M85.7,84.9h0.9v5.7c0,0.3,0,0.6,0,0.9C86,91.8,85.2,92,84.6,92c-1.6,0-2.3-0.6-2.3-2.6c0-1.9,0.6-2.6,2.2-2.6
		c0.4,0,0.9,0.1,1.3,0.2V84.9z M84.7,87.5c-1.4,0-1.5,0.7-1.5,1.9c0,1.2,0.2,1.9,1.4,1.9c0.4,0,0.8-0.1,1.1-0.2c0-0.2,0-0.5,0-0.7
		v-2.7C85.4,87.6,85,87.5,84.7,87.5"/>
	<path class="st0" d="M88.4,89.4c0-1.8,0.6-2.6,2.2-2.6c1.8,0,2.2,0.9,2.2,2.4c0,0.1,0,0.3,0,0.4c-0.6,0.1-1.8,0.2-2.5,0.2l-1.1,0
		c0.1,1,0.5,1.4,1.5,1.4c0.7,0,1.3-0.1,1.8-0.1l0.1,0.7c-0.6,0.1-1.2,0.2-2.1,0.2C88.8,92,88.4,90.9,88.4,89.4 M90.4,89.2
		c0.4,0,1.1-0.1,1.5-0.1c0-0.1,0-0.2,0-0.3c0-0.8-0.3-1.3-1.3-1.3c-1.2,0-1.4,0.7-1.4,1.8L90.4,89.2z"/>
	<path class="st0" d="M98.6,93.7h-0.9v-5.6c0-0.3,0-0.6,0-0.9c0.6-0.3,1.3-0.4,1.9-0.4c1.6,0,2.3,0.6,2.3,2.6c0,1.9-0.6,2.6-2.2,2.6
		c-0.4,0-0.9-0.1-1.3-0.2V93.7z M99.6,91.3c1.4,0,1.5-0.7,1.5-1.9c0-1.2-0.2-1.9-1.4-1.9c-0.4,0-0.8,0.1-1.1,0.2c0,0.2,0,0.5,0,0.7
		v2.7C98.8,91.2,99.3,91.3,99.6,91.3"/>
	<path class="st0" d="M103.8,87c0.6-0.1,1.2-0.2,1.9-0.2c1.1,0,2,0.3,2,1.6v2.3c0,0.3,0,0.6,0,0.9c-0.6,0.3-1.3,0.4-2.2,0.4
		c-1.4,0-1.9-0.5-1.9-1.5c0-0.9,0.4-1.4,1.3-1.6c0.6-0.1,1.3-0.1,2-0.1v-0.1c0-0.8-0.3-1.1-1.2-1.1c-0.6,0-1.2,0.1-1.7,0.1L103.8,87
		z M105.6,91.3c0.4,0,0.8,0,1.2-0.2c0-0.2,0-0.5,0-0.7v-1c-0.5,0-1.2,0-1.7,0.1c-0.6,0.1-0.8,0.3-0.8,1
		C104.4,91.1,104.8,91.3,105.6,91.3"/>
	<path class="st0" d="M109.8,93c0.5,0.1,1.2,0.1,1.8,0.1c0.9,0,1.2-0.3,1.2-1.1v-0.3c-0.4,0.1-0.8,0.2-1.3,0.2
		c-1.5,0-2.1-0.6-2.1-2.5c0-1.9,0.7-2.5,2.3-2.5c0.6,0,1.4,0.1,1.9,0.4c0,0.3,0,0.6,0,0.9v4.2c0,1.3-0.9,1.6-2,1.6
		c-0.7,0-1.4-0.1-2-0.2L109.8,93z M110.3,89.3c0,1.2,0.2,1.8,1.5,1.8c0.3,0,0.7-0.1,1-0.2v-2.6c0-0.2,0-0.5,0-0.7
		c-0.3-0.1-0.7-0.2-1.1-0.2C110.5,87.5,110.3,88.2,110.3,89.3"/>
	<path class="st0" d="M115.5,89.4c0-1.9,0.6-2.6,2.2-2.6c1.6,0,2.2,0.7,2.2,2.6c0,1.9-0.6,2.6-2.2,2.6
		C116.1,92,115.5,91.3,115.5,89.4 M119.1,89.4c0-1.4-0.3-1.9-1.4-1.9c-1,0-1.4,0.4-1.4,1.9c0,1.5,0.3,1.9,1.4,1.9
		C118.8,91.3,119.1,90.8,119.1,89.4"/>
	<polygon class="st1" points="36.7,13.5 44.7,18.1 60,9.2 60,0 	"/>
	<polygon class="st0" points="60,0 60,9.2 75.4,18.1 83.3,13.5 	"/>
	<polygon class="st2" points="36.7,13.5 44.7,18.1 44.7,35.8 36.7,40.4 	"/>
	<polygon class="st3" points="60,9.2 60,26.9 75.3,35.8 75.3,18.1 	"/>
	<polygon class="st4" points="44.6,35.8 60,26.9 75.3,35.8 60,44.7 	"/>
</g>
</svg>
