<?xml version="1.0" encoding="utf-8"?>
<!-- Generator: Adobe Illustrator 23.0.0, SVG Export Plug-In . SVG Version: 6.00 Build 0)  -->
<svg version="1.1" id="Capa_1" xmlns="http://www.w3.org/2000/svg" xmlns:xlink="http://www.w3.org/1999/xlink" x="0px" y="0px"
	 viewBox="0 0 121.2 93.1" style="enable-background:new 0 0 121.2 93.1;" xml:space="preserve">
<style type="text/css">
	.st0{fill:#D90043;}
	.st1{fill:#FFCA00;}
	.st2{fill:#10A1A5;}
	.st3{fill:#003572;}
	.st4{fill:#FAFDFF;}
</style>
<path class="st0" d="M66.7,38.1c-1.6-1.6-3.3-3.2-4.9-4.9c-1-1-2.1-1.1-3.1,0c-6.2,6.1-12.3,12.3-18.5,18.4c-1,1-2.1,1-3.1,0.1
	c-2.4-2.4-4.9-4.8-7.3-7.3c-1-1-1-2.1,0-3.1c6.8-6.8,13.7-13.7,20.5-20.5c2.7-2.7,5.5-5.4,8.2-8.2c1.1-1.1,2.2-1.2,3.3,0
	c4.6,4.6,9.2,9.2,13.9,13.8c0.1,0.1,0.3,0.2,0.4,0.4c0,0,0,0,0,0.1C76,27,76,27.1,75.9,27.1c-2.7,2.7-5.4,5.4-8.1,8.1
	C66.9,36,66.5,36.9,66.7,38.1z"/>
<path class="st1" d="M66.7,38.1c-0.2-1.2,0.2-2,1.1-2.9c2.8-2.6,5.4-5.4,8.1-8.1c0.1-0.1,0.2-0.2,0.2-0.3l0.1,0
	c4.8,4.8,9.5,9.5,14.3,14.3c0.5,0.5,0.9,1.1,1.6,1.5c0.1,0.5,0,1.1,0,1.6c0,4.7,0,9.4,0,14.2c0,0.7-0.1,1.4-0.6,1.8
	c-0.8,0.6-1.8,0.8-2.7-0.1c-2.7-2.7-5.4-5.4-8.1-8c-4.5-4.5-9-9-13.5-13.5C67,38.4,66.9,38.3,66.7,38.1z"/>
<path class="st2" d="M29.1,15.7c0-4.5,0-9,0-13.5c0-0.9,0.3-1.6,1.1-2c0.8-0.4,1.6-0.2,2.3,0.6C37,5.2,41.5,9.7,46,14.1
	c0.9,0.9,0.9,2.1,0,2.9c-4.5,4.5-9,9-13.6,13.5c-0.6,0.6-1.5,0.8-2.2,0.4c-0.7-0.4-1.1-1-1.1-1.8C29.1,24.7,29.1,20.2,29.1,15.7z"/>
<path class="st3" d="M92.1,42.7c-0.6-0.4-1.1-1-1.6-1.5c-4.8-4.8-9.6-9.5-14.3-14.3l-0.1,0c0,0,0,0,0-0.1c2.1-2.1,4.3-4.3,6.4-6.4
	c2-2,4-4,6.1-6.1c0.7-0.7,1.4-0.9,2.2-0.5c0.9,0.4,1.2,1,1.2,1.9c0,7.7,0,15.4,0,23.1C92.1,40.2,92.1,41.4,92.1,42.7z"/>
<path class="st3" d="M16,78c0-2.3-1.4-3.9-3.5-4.1c-3.7-0.3-6.9,2.9-6.5,6.6c0.2,2.1,1.6,3.4,3.7,3.6C13.1,84.4,16,81.5,16,78z
	 M7.4,72.8c1.6-1.3,3.1-2,4.9-2.2c3.3-0.3,6,1.2,7.2,4c0.7,1.7,0.6,3.5,0.2,5.2c-0.9,3.9-4.3,7.1-8.2,7.7c-2.4,0.3-4.5-0.2-6.4-1.9
	c-0.3,1.8-0.6,3.5-0.9,5.2c-0.3,1.6-1.3,2.5-2.7,2.3c-1-0.1-1.6-0.8-1.4-1.8C0.3,89.5,0.7,87.7,1,86c0.8-4.4,1.5-8.8,2.3-13.2
	c0.1-0.7,0.3-1.3,1-1.8c0.8-0.5,1.6-0.7,2.4-0.3C7.4,71.1,7.6,71.8,7.4,72.8z"/>
<path class="st3" d="M114.7,85.3c-1.9,1.6-4.1,2-6.5,1.8c-2.8-0.3-4.6-2.4-4.2-5.2c0.3-2.2,0.7-4.3,1.1-6.5c0.2-1,0.4-2.1,0.5-3.1
	c0.2-1.4,1.7-2.3,3.1-1.8c0.8,0.3,1.1,0.9,1,1.9c-0.3,2-0.7,3.9-1,5.9c-0.2,0.9-0.4,1.9-0.4,2.8c0,1.4,0.6,2.3,2.1,2.5
	c2.9,0.5,4.8-0.8,5.3-3.7c0.4-2.4,0.9-4.9,1.3-7.3c0.2-1.3,1-2.1,2.1-2.2c1.4-0.2,2.2,0.7,2,2.1c-0.7,3.9-1.4,7.9-2.1,11.8
	c-0.2,1.2-0.4,2.4-0.9,3.5c-0.9,2.1-2.5,3.5-4.7,4.3c-2.6,0.9-5.3,1-8,0.4c-0.2-0.1-0.5-0.1-0.7-0.2c-1.1-0.4-1.6-1.2-1.3-2
	c0.4-1.2,1.6-1.9,2.6-1.6c0.4,0.1,0.8,0.3,1.2,0.4c1.5,0.6,3,0.5,4.5,0.1C113.5,88.8,114.7,87.3,114.7,85.3z"/>
<path class="st3" d="M52.3,85.4c-2,1.6-4.2,2-6.6,1.8c-2.6-0.3-4.4-2.4-4.1-5c0.4-3.3,1.1-6.6,1.7-9.8c0.2-1,1.1-1.7,2.2-1.8
	c1.3-0.1,2,0.7,1.8,2c-0.5,2.7-1,5.4-1.4,8.1c-0.3,1.9,0.4,2.9,2.3,3.1c2.6,0.4,4.6-1,5-3.6c0.4-2.5,0.9-4.9,1.3-7.4
	c0.2-1.3,0.9-2,2.1-2.2c1.4-0.2,2.3,0.7,2,2.1c-0.4,2-0.7,4.1-1.1,6.1c-0.4,2.5-0.8,5-1.4,7.5c-0.7,3.3-2.7,5.4-5.9,6.3
	c-2.5,0.7-5,0.7-7.4,0.2c-0.6-0.1-1.1-0.3-1.5-0.7c-0.5-0.5-0.6-1.1-0.3-1.7c0.5-1.2,1.7-1.8,3-1.2c1.7,0.8,3.5,0.9,5.3,0.4
	C51.1,88.8,52.2,87.4,52.3,85.4z"/>
<path class="st3" d="M66.9,80.5c0.2-0.4,0.5-0.8,0.7-1.2c1-1.7,1.9-3.3,2.9-5c0.4-0.7,1.1-1.2,1.9-1.3c1-0.1,1.6,0.3,1.9,1.2
	c0.4,1.8,0.8,3.7,1.3,5.5c0,0.2,0.1,0.4,0.2,0.7c0.9-1.5,1.7-2.9,2.5-4.3c0.9-1.5,1.8-3,2.7-4.5c0.5-0.9,1.8-1.4,2.8-1
	c0.9,0.3,1.3,1.4,0.7,2.4c-0.8,1.4-1.7,2.9-2.5,4.3c-1.6,2.8-3.2,5.5-4.9,8.3c-0.5,0.9-1.3,1.4-2.4,1.3c-0.9-0.1-1.4-0.5-1.5-1.3
	c-0.5-2.2-0.9-4.4-1.4-6.5c0-0.2-0.1-0.4-0.1-0.7c-0.5,0.5-0.7,1.1-1,1.7c-1,1.8-2,3.7-3,5.5c-0.5,0.9-1.3,1.4-2.4,1.4
	c-0.8,0-1.4-0.5-1.6-1.3c-1-4.2-2-8.3-2.9-12.5c-0.2-0.9,0.2-1.7,1-2.2c0.8-0.5,1.6-0.6,2.4-0.2c0.4,0.2,0.5,0.5,0.6,0.9
	c0.6,2.8,1.3,5.6,1.9,8.4C66.7,80.2,66.7,80.3,66.9,80.5z"/>
<path class="st3" d="M30,84.1c3,0,5.4-2.2,5.9-5.3c0.5-3.2-1.8-5.5-5-4.9c-2.8,0.5-4.9,3.1-5,6C25.9,82.5,27.5,84.1,30,84.1z
	 M34.5,85.5c-1,0.8-2.2,1.4-3.3,1.7c-2.9,0.9-6.2,0-7.9-2.3c-1.3-1.8-1.6-3.8-1.2-5.9c0.8-4.3,3.4-7.2,7.6-8.3
	c2.5-0.7,5-0.3,7.1,1.5c0.3-0.5,0.5-1.1,1-1.4c0.6-0.4,1.3-0.5,2-0.3c0.8,0.2,1.3,0.9,1.1,1.7c-0.8,4.4-1.5,8.7-2.3,13.1
	c-0.3,1.4-1.8,2.2-3.1,1.7C34.9,86.8,34.6,86.3,34.5,85.5z"/>
<path class="st3" d="M88.4,80.1c0,2.4,1.6,4,4,4.1c3.4,0.1,6.2-2.9,6-6.4c-0.1-2.3-1.7-3.8-4-3.8C91.1,73.9,88.4,76.6,88.4,80.1z
	 M99.3,72.3c0.4-1.1,1-1.7,2.1-1.8c1.4-0.2,2.2,0.7,1.9,2c-0.6,3.6-1.3,7.2-1.9,10.7c-0.1,0.6-0.2,1.3-0.3,1.9
	c-0.1,0.6-0.4,1.1-0.9,1.5c-1.3,1.1-3,0.5-3.4-1.2c-1,0.7-2.1,1.3-3.3,1.7c-3,1-6.4,0-8.1-2.4c-1.1-1.6-1.4-3.4-1.1-5.3
	c0.6-3.8,2.6-6.6,6.1-8.2c2.6-1.1,5.2-1.2,7.7,0.3C98.6,71.8,98.9,72,99.3,72.3z"/>
<path class="st4" d="M16,78c0,3.5-2.9,6.4-6.3,6.1C7.6,84,6.3,82.6,6,80.5c-0.4-3.7,2.8-6.9,6.5-6.6C14.6,74.1,16,75.7,16,78z"/>
<path class="st4" d="M30,84.1c-2.5,0-4.1-1.7-4.1-4.2c0-2.9,2.1-5.4,5-6c3.2-0.6,5.5,1.6,5,4.9C35.4,82,33,84.1,30,84.1z"/>
<path class="st4" d="M88.4,80.1c0-3.4,2.7-6.2,6-6.2c2.3,0,3.9,1.5,4,3.8c0.1,3.5-2.6,6.5-6,6.4C90,84.1,88.4,82.5,88.4,80.1z"/>
</svg>
