<svg xmlns="http://www.w3.org/2000/svg" xmlns:xlink="http://www.w3.org/1999/xlink" width="160.129" height="160.129" viewBox="0 0 160.129 160.129">
  <defs>
    <clipPath id="clip-path">
      <circle id="Elipse_28" data-name="Elipse 28" cx="75.107" cy="75.107" r="75.107" fill="none"/>
    </clipPath>
  </defs>
  <g id="Grupo_302" data-name="Grupo 302" transform="translate(0)">
    <g id="Grupo_298" data-name="Grupo 298" transform="translate(0)">
      <ellipse id="Elipse_27" data-name="Elipse 27" cx="79.13" cy="79.13" rx="79.13" ry="79.13" transform="translate(0.935 0.934)" fill="#fff"/>
      <path id="Trazado_692" data-name="Trazado 692" d="M135.292,317.442a80.065,80.065,0,1,1,80.065-80.065A80.154,80.154,0,0,1,135.292,317.442Zm0-158.258a78.193,78.193,0,1,0,78.193,78.193A78.279,78.279,0,0,0,135.292,159.185Z" transform="translate(-55.227 -157.313)" fill="#d00022"/>
    </g>
    <g id="Grupo_301" data-name="Grupo 301" transform="translate(4.957 4.957)">
      <g id="Grupo_300" data-name="Grupo 300" clip-path="url(#clip-path)">
        <g id="Grupo_299" data-name="Grupo 299" transform="translate(-2.527 15.882)">
          <path id="Trazado_693" data-name="Trazado 693" d="M143.157,179.686s-9.037,1.336-16.162-10.043-21.562-3.157-21.562-3.157l-2.472,1.3-1.237,1.636.532,1.7,1.725.068,1.3,2.431,2.792-1.51.845,3.382-.845.1-2.455-.075L103,176.24l-2.185,3.931-3.62,1-.164,3.194,1.609.208-.242,2.086-3.729-.361-3.307,1.139-.47,1.94.982,3.839,2.1.712,3.3-.406,2.185-.416.525-1.858,2.973-4.919,2.342.211,2.022-2.281.6,1.52,5.969,3.157-.573,1.009-2.523.109,1.132,1.289,1.565.17,1.735-.965-.283-2.2.764-.47-.713-.607L111.02,185.6l-1.278-2.645,3.1-.344,1.084.869,2.922,1.994.433,2.741,3.082,2.663.573-4.142,1.79-1.268.706,3.269,2.09,1.827.764-.082c.978,1.865,1.919,3.777,2.731,5.7l-3.262.361-3.757-2.161-3.61.743.245,2.206-1.145.126-1.326-.757-6.532-.866-.457-4.111-7.9,1.517-2.356,1.592-3.177.351-1.541.041-3.624,2.547.447,4.026-7.258,6.552.9,2.345,1.609-.177L86.1,212.9l-1.053.545.58,6.031,7.684,7,2.966-.327.119-.484,5.338-.59,1.367-1.612,3.01-.331L108,224.641l4.548-.027.065,6.041,5.976,8.263-2.114,5.339.474,2.352,2.3,1.8.631,5.724L123,257.484l.4,3.6C151.932,274.833,168.057,230.379,143.157,179.686Z" transform="translate(11.075 -162.969)" fill="#d10022" fill-rule="evenodd"/>
          <path id="Trazado_694" data-name="Trazado 694" d="M142.287,235.711l-6.279.651L130.84,235l-.648-3.535-1.974-2.7-4.5.413-3.037-3.784-2.451-.845.007,1.244-4.169.719-1.766-1.994-4.507-.4-3.136,4.6-5.789-.348-1.132-6.354-4.234-.262,1.35-3.324-.712-1.766L89.12,220.9l-3.477,0-1.527-2.574.46-2.84,1.48-3.682,4.122-2.69,8.393-.927.283,2.543,3.164,1.067-.736-4.336,1.96-2.448,4.046-3.365.116-2.073,3.866-5.018,4.377-3.1-.464-.293,2.85-3.317,1.18.17.583.62,1.084-1.449.28-.2-1.333-.024-1.4-.276-.143-1.316.658-.627,1.565-.218.716.266.77,1.159.753-.171-.014-.126.222.061,2.124-.579L125.29,184l1.265.2.126,1.142-1.053.934.31,1.251,4.077.794.007.041.92-.187-.147-1.7-3.293-1.094-.266-.828,2.5-1.135-.15-2.516-2.9-1.353-.631-4.176-3.528,2.233-1.357.15-.017-3.259-5.219-.624-1.9,1.8.539,4.875-3.644,1.606-1.18,3.3-1.619.481-.45-4.07-3.569-.078-1.912-.989-1.006-2.506,5.945-4.432,2.993-1.275.525,2.042,1.728-.276.01-1.074,1.8-.457v-.385l-.839-.208-.293-1.084,2.226-.46,1.2-1.548.034-.089.041-.007.337-.464,4.64-1.115,2.226,1.514-5.1,3.525,7.087.845.637-2.386,3.01-.331.876-2.158-2.219-.269-.28-2.543-6.982-2.233-4.565,1.019-2.478,1.646.539,3.331-2.758-.123-.627-1.776,2.366-2.666-4.776.269-1.309.576-.419,1.633,1.817.143-.187,1.779-2.986.545-.337,1.238-4.357.569a12.4,12.4,0,0,0-.566-2.427c-.174.017,3.423-.464,3.423-.464l2.3-2.83-1.48-.566-1.7,2.076-3.157.177-2.2-2.42-4.029.447-3.849,3.6,3.856-.426.467,1.108-.873,1.04,4.254-.341.845,1.452-4.851.365-.341-1.166-3.082-.3-1.708-.712-8.049-3.143c-34.336,5.465-24.245,34.97-15.937,36.129l.419,3.815,3.126,1.115.624,5.639,3.375,4.517,2.325.089.116-1.687-3.177-3.9-1-4.009,1.612-.177,1.142,4.122,4.575,5.287L76.364,220l2.922,3.539,6.406.88-.112-1.016,2.5.109-.014,1.8,1.987.123,3.1.515,4.817,4.36,5.472-.174,1.043,4.387-3.447,3,.273,4.006L101.028,244l6.126,6.143.682,2.287s2.008.293,2.26.263c.211-.02,4.718,2.7,4.718,2.7l1.343,12.167,1.531.259-.392,5.751,2.864,3.031.153,5.645,3.941,5.4,4.606,3.221,4.244-.426.273-1.4-3.426-2.277.072-1.3.372-1.674-.048-1.626-2.131.15-1.207-1.2,1.555-1.889.113-1.3-2.011-.334-.044-1.2,2.748-.733,4.016-2.506,1.108-2.782,3.825-6.17-1.51-4.34,1.142-2.485,4.077-.365,2.516-2.465-.055-8.662,2.622-4.237.235-2.516-2.853-.586Z" transform="translate(-55.94 -163.426)" fill="#d10022" fill-rule="evenodd"/>
        </g>
      </g>
    </g>
  </g>
</svg>
