<svg xmlns="http://www.w3.org/2000/svg" width="324.461" height="79.18" viewBox="0 0 324.461 79.18">
  <g id="Grupo_148" data-name="Grupo 148" transform="translate(-177.072 -690.437)">
    <path id="Trazado_345" data-name="Trazado 345" d="M389.125,698.4l.089-1.107-11.087-6.824-13.384,15.86,4.773,4.264Zm24.645,56.96c0,6.566-.086,7.417,3.581,8.181l1.2.173V768.4H392.624v-4.689l1.532-.339c3.668-.6,4.1-1.28,4.1-8.015V727.814c0-4.432-.682-5.968-4.264-6.735l-2.047-.428.344-4.859H411.38l1.028.6.766,6.053c4.518-4.6,10.146-8.1,17.31-8.1,8.611,0,13.9,5.029,13.9,16.8v24.218c0,6.48.339,7.587,4.008,8.015l1.873.339V768.4H424.345v-4.689l1.278-.173c3.068-.507,3.24-1.7,3.24-7.583v-23.2c0-5.8-2.3-7.5-6.737-7.5a17.283,17.283,0,0,0-8.356,1.876Zm-30.187,0c0,6.566.514,7.417,4.095,8.015l1.96.339V768.4H361.332v-4.689l2.13-.339c3.668-.6,4.52-1.2,4.52-7.931V727.814c0-4.689-1.023-5.968-4.52-6.821l-1.448-.343.341-4.859h20.207l1.021.6Zm-42.206,0c0,6.566.514,7.417,4.182,7.845l3.579.425V768.4H320.149v-4.773l1.876-.341c3.581-.682,3.838-1.194,3.838-7.929V727.729c0-4.006-.682-5.969-4.179-6.649l-2.131-.428.341-4.859h18.672l1.023.6,1.278,7.5c3.242-5.628,7.249-9.548,12.792-9.548a20.475,20.475,0,0,1,5.714.853l-1.194,17.819H356.9c-7.417-4.434-12.279-5.541-15.521-4.091ZM296.106,744.87c-8.529-.259-13.22,1.617-13.22,7.672,0,4.689,2.476,7.078,6.483,7.078,3.836,0,6.737-1.79,6.737-5.627Zm20.973,23.276a31.783,31.783,0,0,1-9.122,1.448c-8.186,0-10.318-3.579-11.087-7.074-2.556,3.5-6.649,7.074-14.834,7.074-12.278,0-14.495-8.609-14.495-14.58,0-15.685,16.285-15.859,28.565-16.282v-6.483c0-5.03-2.047-8.356-7.931-8.356-5.2,0-10.23,1.79-15.178,4.093l-3.154-6.48a40.592,40.592,0,0,1,22.424-7.162c13.388,0,19.355,4.263,19.355,20.037v23.79c0,4.179.6,4.861,4.007,5.289l1.449.168Zm-56.956-12.788c0,6.566.343,7.417,3.92,8.015l1.962.339V768.4H238.551v-4.689l2.131-.339c3.581-.6,3.922-1.2,3.922-7.931V704.453c0-4.436-1.11-5.373-4.6-6.226l-1.878-.511.6-4.436h21.4Zm-25.751,9.209c-5.882,3.411-13.982,5.027-21.828,5.027-25.75,0-35.471-16.794-35.471-36.235,0-22.169,12.278-39.223,37.433-39.223a42.225,42.225,0,0,1,20.719,5.8L234.2,718.776l-7.247-.766L225.5,710.08c-.768-4.945-4.263-7.929-10.914-7.929-12.365,0-19.953,11.083-19.953,29.587,0,19.952,6.823,29.843,19.527,29.843,7.419,0,10.146-1.789,11.6-7.415l1.874-6.569h7.676Z" transform="translate(0 0.023)" fill="#d20022"/>
    <path id="Trazado_346" data-name="Trazado 346" d="M384.336,714.311a45.3,45.3,0,0,0-12.867-.787c-3.184,16.806-21.912,26.724-15.708,27.626a24.575,24.575,0,0,0,3.1.241,25.521,25.521,0,0,0,25.507-25.433c.009-.546-.007-1.095-.035-1.647m-20.992.519c-8.739,2.943.052-.019-8.777,2.972,0,.037,0,.058,0,.094a7.413,7.413,0,1,1-.5-2.628c4.966-1.35,17.371-5.029,24.889-15.082a25.329,25.329,0,0,0-13.7-8.945,25.738,25.738,0,0,0-6.345-.8A24.9,24.9,0,0,0,347.55,693.1a25.4,25.4,0,0,0-6.98,5.113,23.639,23.639,0,0,0-5.787,9.431c-4.974,15.21,7.1,20.415,12.4,20.415a16.7,16.7,0,0,0,10.384-3.681,16.178,16.178,0,0,0,5.775-9.545" transform="translate(117.159 0)" fill="#d20022"/>
  </g>
</svg>
