<svg xmlns="http://www.w3.org/2000/svg" width="29.093" height="29.096" viewBox="0 0 29.093 29.096">
  <g id="Grupo_306" data-name="Grupo 306" transform="translate(-1717.907 -2464.314)">
    <path id="Trazado_343" data-name="Trazado 343" d="M1180.2,552.418a13.84,13.84,0,1,1-13.84,13.839,13.837,13.837,0,0,1,13.84-13.839m0-.709a14.548,14.548,0,1,0,14.541,14.548,14.568,14.568,0,0,0-14.541-14.548" transform="translate(552.263 1912.605)" fill="#464749"/>
    <path id="Trazado_344" data-name="Trazado 344" d="M1173.631,574.045a7.9,7.9,0,0,0,3.793-.652,6.846,6.846,0,0,0,1.521-.917,3.613,3.613,0,0,1-1.573-.393,3.574,3.574,0,0,1-1.736-1.941c-.077-.193-.077-.193.135-.18a2.92,2.92,0,0,0,1.335-.085,3.81,3.81,0,0,1-.857-.327,3.658,3.658,0,0,1-1.967-3.1c-.012-.162.032-.18.181-.11a3.491,3.491,0,0,0,1.424.387c-.232-.206-.431-.373-.612-.555a3.725,3.725,0,0,1-.574-4.119c.089-.18.123-.18.245-.04a10.3,10.3,0,0,0,6.346,3.541c.258.051.542.051.806.109.18.026.2-.058.174-.193a3.642,3.642,0,0,1,6.088-3.276.407.407,0,0,0,.4.1,6.837,6.837,0,0,0,1.92-.754.366.366,0,0,0,.155-.1,3.585,3.585,0,0,1-1.534,2.012,7.451,7.451,0,0,0,1.959-.509c.014.084-.052.135-.089.206a7.438,7.438,0,0,1-1.509,1.54.309.309,0,0,0-.137.291,10.574,10.574,0,0,1-2.508,7.106,9.8,9.8,0,0,1-6.074,3.406,10.328,10.328,0,0,1-7.235-1.408.136.136,0,0,0-.079-.037" transform="translate(550.45 1910.454)" fill="#464749" fill-rule="evenodd"/>
  </g>
</svg>
