<svg xmlns="http://www.w3.org/2000/svg" width="29.738" height="29.724" viewBox="0 0 29.738 29.724">
  <g id="Grupo_305" data-name="Grupo 305" transform="translate(-1679.183 -2464)">
    <path id="Trazado_341" data-name="Trazado 341" d="M1130.444,552.028a14.131,14.131,0,0,1,1.2,28.209,6.708,6.708,0,0,1-1.2.073,13.867,13.867,0,0,1-3.065-.33,14.142,14.142,0,0,1,3.065-27.951m0-.725a14.869,14.869,0,0,0-3.226,29.389,15.129,15.129,0,0,0,3.226.335,8.98,8.98,0,0,0,1.329-.066,14.859,14.859,0,0,0-1.329-29.658" transform="translate(563.628 1912.697)" fill="#464749"/>
    <path id="Trazado_342" data-name="Trazado 342" d="M1134.834,565.613a1.646,1.646,0,0,1,1.277-.443,7.385,7.385,0,0,1,1.931.271l.55-2.966a10.434,10.434,0,0,0-3.5-.507,5.723,5.723,0,0,0-2.92.626,3.23,3.23,0,0,0-1.57,1.6,7.692,7.692,0,0,0-.438,2.993v1.167h-2.339v3.387h2.339V582.4a13.82,13.82,0,0,0,3.065.33,6.69,6.69,0,0,0,1.2-.073V571.742h3.1v-3.387h-3.1v-1.1a2.323,2.323,0,0,1,.4-1.646" transform="translate(560.844 1910.277)" fill="#464749"/>
  </g>
</svg>
