<?xml version="1.0" encoding="utf-8"?>
<!-- Generator: Adobe Illustrator 23.0.0, SVG Export Plug-In . SVG Version: 6.00 Build 0)  -->
<svg version="1.1" id="Capa_1" xmlns="http://www.w3.org/2000/svg" xmlns:xlink="http://www.w3.org/1999/xlink" x="0px" y="0px"
	 viewBox="0 0 1395 325" style="enable-background:new 0 0 1395 325;" xml:space="preserve">
<style type="text/css">
	.st0{fill:#D70F22;}
	.st1{fill:#161511;}
</style>
<g>
	<rect x="0.7" y="4.6" class="st0" width="22.1" height="133.4"/>
	<polygon class="st1" points="77.5,83.8 119.6,83.8 119.6,57.2 77.5,57.2 77.5,32.5 161.3,32.5 161.3,5.5 51.1,5.5 51.1,140.2 
		164.5,140.2 164.5,113.5 77.5,113.5 	"/>
	<polygon class="st1" points="295.2,113.5 219.8,113.5 219.8,5.5 193.4,5.5 193.4,140.2 295.2,140.2 	"/>
	<polygon class="st1" points="481.3,63.5 481.3,140.2 507.7,140.2 507.7,5.5 483.2,5.5 441.5,79.9 401.3,5.5 376.9,5.5 376.9,140.2 
		402.8,140.2 402.8,63.8 441.4,134.3 	"/>
	<path class="st1" d="M657.3,122.8c9-11.8,9.6-21.8,9.6-34.7V5.5h-26.1v82.6c0,20.6-8.1,27.9-31.1,27.9c-13.9,0-23.3-2.6-28.6-8.1
		c-5.4-5.5-5.8-11.4-5.8-19.8V5.5h-26.2v82.6c0,11.2,0.6,21.3,7.7,31.9c13.6,20.5,39.6,22.7,50.1,22.7
		C620.2,142.8,644.4,140.2,657.3,122.8"/>
	<polygon class="st1" points="827.9,140.2 827.9,5.5 801.3,5.5 801.3,94.1 732.9,5.5 709.1,5.5 709.1,140.2 735.2,140.2 735.2,52 
		803.8,140.2 	"/>
	<path class="st1" d="M933,5.5h-63.9v134.7h64.4c18.3,0,31-5.4,42.6-18.1c12.2-13.2,19.5-31.8,19.5-49.7
		C995.6,34.9,968.1,5.5,933,5.5 M933.5,113.5h-38.4V32.3h38c24.6,0,35.9,21.5,35.9,41.4C969,96.4,953.7,113.5,933.5,113.5"/>
	<path class="st1" d="M1084.8,143.3c39.1,0,70.9-31.5,70.9-70.2c0-19.3-7.4-37.3-20.7-50.6c-13.3-13.3-31-20.6-50-20.6
		c-39.1,0-70.9,31-70.9,69.2C1014,111.5,1045.1,143.3,1084.8,143.3 M1084.8,28.8c25,0,44.7,19,44.7,43.3c0,24.8-19.5,44.3-44.5,44.3
		c-24.7,0-44.8-19.3-44.8-43.1C1040.1,47.5,1058.9,28.8,1084.8,28.8"/>
	<path class="st1" d="M381,239.1c0-39.9-31-71.2-70.6-71.2c-39.2,0-71.1,31.8-71.1,70.9c0,39.5,31,70.4,70.6,70.4
		c8.4,0,15.3-1.1,24.1-3.9l17.1,18l22.1-15.7L357.5,291C373.5,276.4,381,259.8,381,239.1 M312.8,282.7c-0.6,0-1.1,0-1.7,0
		c-26.1,0-45.8-19-45.8-44.3c0-24.9,19.3-43.6,44.8-43.6c25.4,0,44.5,18.6,44.5,43.3c0,13.4-5.1,24.4-15.6,33.5l-8-8.1l-22.9,14.3
		L312.8,282.7z"/>
	<path class="st1" d="M505.4,254.2c0,20.6-8.1,27.9-31.1,27.9c-13.9,0-23.3-2.6-28.6-8.1c-5.4-5.5-5.8-11.4-5.8-19.8v-82.6h-26.2
		v82.6c0,11.2,0.6,21.3,7.7,31.9c13.6,20.5,39.6,22.7,50.1,22.7c13.2,0,37.3-2.6,50.3-19.9c9-11.8,9.6-21.8,9.6-34.7v-82.6h-26.1
		V254.2z"/>
	<polygon class="st1" points="600,249.9 642.2,249.9 642.2,223.3 600,223.3 600,198.5 683.9,198.5 683.9,171.6 573.6,171.6 
		573.6,306.3 687.1,306.3 687.1,279.5 600,279.5 	"/>
	<polygon class="st1" points="824.2,271 781.3,171.6 752.7,171.6 810.7,306.3 837.6,306.3 896.5,171.6 867.5,171.6 	"/>
	<rect x="913.6" y="171.6" class="st1" width="26.1" height="134.7"/>
	<polygon class="st1" points="1005.9,249.9 1048.1,249.9 1048.1,223.3 1005.9,223.3 1005.9,198.5 1089.7,198.5 1089.7,171.6 
		979.5,171.6 979.5,306.3 1092.9,306.3 1092.9,279.5 1005.9,279.5 	"/>
	<polygon class="st1" points="1213.1,260.1 1144.8,171.6 1121,171.6 1121,306.3 1147,306.3 1147,218 1215.6,306.3 1239.7,306.3 
		1239.7,171.6 1213.1,171.6 	"/>
	<polygon class="st1" points="1307.3,279.5 1307.3,249.9 1349.5,249.9 1349.5,223.3 1307.3,223.3 1307.3,198.5 1391.1,198.5 
		1391.1,171.6 1280.9,171.6 1280.9,306.3 1394.3,306.3 1394.3,279.5 	"/>
</g>
</svg>
