<?xml version="1.0" encoding="utf-8"?>
<!-- Generator: Adobe Illustrator 23.0.0, SVG Export Plug-In . SVG Version: 6.00 Build 0)  -->
<svg version="1.1" id="Capa_1" xmlns="http://www.w3.org/2000/svg" xmlns:xlink="http://www.w3.org/1999/xlink" x="0px" y="0px"
	 viewBox="0 0 86.7 25.7" style="enable-background:new 0 0 86.7 25.7;" xml:space="preserve">
<style type="text/css">
	.st0{fill:#231F20;}
	.st1{fill-rule:evenodd;clip-rule:evenodd;fill:#231F20;}
</style>
<g>
	<path class="st0" d="M12.7,1.5C19,1.5,24,6.6,24,12.9c0,5.9-4.6,10.8-10.4,11.3c-0.3,0.1-0.6,0.1-1,0.1c-0.8,0-1.7-0.1-2.5-0.3
		c-5.1-1.1-8.9-5.7-8.9-11.1C1.4,6.6,6.4,1.5,12.7,1.5 M12.7,1C6.1,1,0.8,6.3,0.8,12.9c0,5.5,3.9,10.4,9.3,11.7
		c0.8,0.2,1.7,0.3,2.6,0.3c0.4,0,0.7,0,1.1-0.1c6.1-0.5,10.8-5.7,10.8-11.9C24.6,6.3,19.3,1,12.7,1"/>
	<path class="st0" d="M17,7.6c-2.9-0.5-5.8-0.5-8.7,0C6.6,7.9,5.6,9,5.6,10.4v4.9c0,1.4,1,2.5,2.7,2.8c1.4,0.2,2.9,0.4,4.4,0.4
		c1.5,0,2.9-0.1,4.4-0.4c1.6-0.3,2.7-1.4,2.7-2.8v-5C19.8,9,18.7,7.9,17,7.6 M15,13.2l-3.5,2.1c-0.1,0-0.1,0.1-0.2,0.1
		c-0.1,0-0.1,0-0.2,0c-0.1-0.1-0.2-0.2-0.2-0.3v-4.2c0-0.1,0.1-0.2,0.2-0.3c0.1-0.1,0.2-0.1,0.4,0l3.5,2.1c0.2,0.1,0.2,0.3,0.1,0.5
		C15.1,13.1,15,13.1,15,13.2L15,13.2z"/>
	<path class="st0" d="M43.5,1.5c6.3,0,11.3,5.1,11.3,11.3c0,5.9-4.6,10.8-10.4,11.3c-0.3,0.1-0.6,0.1-1,0.1c-0.8,0-1.7-0.1-2.5-0.3
		c-5.1-1.1-8.9-5.7-8.9-11.1C32.1,6.6,37.2,1.5,43.5,1.5 M43.5,1c-6.6,0-11.9,5.3-11.9,11.9c0,5.5,3.9,10.4,9.3,11.7
		c0.8,0.2,1.7,0.3,2.6,0.3c0.4,0,0.7,0,1.1-0.1c6.1-0.5,10.8-5.7,10.8-11.9C55.4,6.3,50,1,43.5,1"/>
	<path class="st0" d="M44.8,10.5c0.2-0.2,0.5-0.4,1-0.4c0.5,0,1,0.1,1.5,0.2L47.8,8c-0.9-0.3-1.8-0.4-2.8-0.4c-1,0-1.7,0.1-2.3,0.5
		c-0.6,0.3-1,0.7-1.3,1.3c-0.2,0.5-0.4,1.3-0.4,2.4v0.9h-1.9v2.7H41v8.5c0.8,0.2,1.6,0.3,2.5,0.3c0.3,0,0.6,0,1-0.1v-8.8h2.5v-2.7
		h-2.5v-0.9C44.4,11.1,44.5,10.7,44.8,10.5"/>
	<path class="st0" d="M74.2,1.8c6.1,0,11.1,5,11.1,11.1c0,6.1-5,11.1-11.1,11.1c-6.1,0-11.1-5-11.1-11.1C63.1,6.7,68.1,1.8,74.2,1.8
		 M74.2,1.2c-6.4,0-11.7,5.2-11.7,11.7c0,6.4,5.2,11.7,11.7,11.7c6.4,0,11.7-5.2,11.7-11.7C85.9,6.4,80.7,1.2,74.2,1.2"/>
	<path class="st1" d="M67.5,17.4c1.1,0.1,2.1-0.1,3-0.5c0.4-0.2,0.8-0.4,1.2-0.7c-0.5,0-0.9-0.1-1.3-0.3c-0.7-0.3-1.1-0.9-1.4-1.6
		c-0.1-0.2-0.1-0.2,0.1-0.1c0.5,0,0.8,0,1.1-0.1c-0.3-0.1-0.5-0.1-0.7-0.3c-1-0.5-1.5-1.4-1.6-2.5c0-0.1,0-0.1,0.1-0.1
		c0.3,0.2,0.7,0.3,1.1,0.3c-0.2-0.2-0.3-0.3-0.5-0.4c-0.8-0.9-1-2.2-0.5-3.3c0.1-0.1,0.1-0.1,0.2,0c1.4,1.6,3,2.5,5.1,2.8
		c0.2,0,0.4,0,0.6,0.1c0.1,0,0.2,0,0.1-0.2c-0.2-1.2,0.4-2.4,1.4-3C77,6.8,78.4,7,79.3,7.9C79.4,8,79.5,8,79.7,8
		c0.5-0.1,1.1-0.3,1.5-0.6c0,0,0.1,0,0.1-0.1c-0.2,0.7-0.6,1.2-1.2,1.6c0.6-0.1,1.1-0.2,1.6-0.4c0,0.1,0,0.1-0.1,0.2
		c-0.3,0.5-0.7,0.9-1.2,1.2c-0.1,0.1-0.1,0.1-0.1,0.2c0,2.1-0.6,4-2,5.7c-1.3,1.5-2.9,2.4-4.9,2.7C71.3,18.9,69.4,18.5,67.5,17.4
		C67.6,17.4,67.5,17.4,67.5,17.4"/>
</g>
</svg>
